<svg xmlns="http://www.w3.org/2000/svg" width="320" height="108.523"><g fill="#F0F2F2"><path d="M94.971 2.098c0 1.721-1.73 4.204-5.19 7.448-3.46 3.245-7.681 6.355-12.664 9.331-.645 2.043-1.596 5.754-2.85 11.132-2.008 8.426-3.854 14.404-5.539 17.935-1.686 3.532-4.464 7.126-8.335 10.783-11.186 10.574-23.717 15.863-37.591 15.863-3.98 0-7.493-.664-10.54-1.99-1.686 3.303-2.528 6.176-2.528 8.617 0 3.087 1.03 5.924 3.092 8.51.215.215.323.466.323.754 0 .287-.18.43-.538.43-.83 0-1.724-1.113-2.68-3.338-.956-2.227-1.434-4.309-1.434-6.248 0-2.8.914-5.888 2.743-9.263-7.494-3.872-11.24-10.522-11.24-19.952 0-6.059 1.792-12.082 5.378-18.069 3.584-5.987 8.622-11.382 15.111-16.187 8.282-6.095 16.473-9.142 24.576-9.142 4.41 0 7.914 1.237 10.513 3.711 2.599 2.474 3.899 5.826 3.899 10.056 0 2.259-.323 4.607-.968 7.045 5.27-3.513 9.93-6.488 13.982-8.927 2.581-5.628 5.826-10.468 9.733-14.52 3.909-4.051 7.316-6.077 10.219-6.077 1.685 0 2.528.699 2.528 2.098zm-36.461 20.166c0-3.764-1.193-6.794-3.577-9.088-2.385-2.294-5.531-3.442-9.438-3.442-9.645 0-18.975 5.02-27.991 15.058-9.016 10.038-13.524 20.435-13.524 31.19 0 7.063 2.599 12.083 7.798 15.058 2.438-4.015 5.933-8.407 10.487-13.176-2.366-2.043-3.549-4.481-3.549-7.313 0-2.152.681-3.988 2.044-5.512 1.362-1.523 3.011-2.285 4.947-2.285 2.401 0 3.603 1.112 3.603 3.334 0 1.148-.449 2.142-1.344 2.984-.897.843-1.955 1.264-3.173 1.264-1.757 0-2.635-.842-2.635-2.528 0-.538.179-1.111.538-1.721.143-.466.215-.734.215-.806 0-.215-.108-.323-.323-.323-.61 0-1.237.646-1.882 1.936-.645 1.291-.968 2.564-.968 3.819 0 2.366 1.093 4.482 3.281 6.345 7.206-7.6 18.588-16.473 34.149-26.62.893-3.154 1.342-5.879 1.342-8.174zm13.336-.215c-4.195 2.654-8.784 5.665-13.767 9.035-2.366 7.601-6.516 14.27-12.449 20.005-5.934 5.737-11.625 8.604-17.074 8.604-1.649 0-3.46-.43-5.431-1.291-4.052 4.195-7.493 8.605-10.325 13.229 2.939 1.326 6.273 1.99 10.002 1.99 6.74 0 13.264-1.909 19.575-5.727 6.309-3.818 11.723-9.116 16.24-15.892 2.115-3.154 3.783-6.085 5.002-8.792 1.218-2.706 3.19-7.806 5.915-15.3.645-1.863 1.416-3.818 2.312-5.861zm-15.218 9.895l-3.549 2.42c-13.517 9.322-23.269 17.083-29.256 23.285 1.506.789 3.119 1.183 4.84 1.183 5.019 0 10.271-2.634 15.757-7.905s9.554-11.597 12.208-18.983zm37.321-29.739c0-.86-.502-1.291-1.506-1.291-2.402 0-5.082 1.659-8.04 4.975-2.958 3.316-5.243 7.198-6.857 11.643 4.732-2.904 8.649-5.808 11.751-8.712 3.101-2.904 4.652-5.109 4.652-6.615zM91.771 55.525c-.036.108-.216.395-.538.862l-2.315 3.177c-6.748 9.372-11.899 14.057-15.452 14.057-1.687 0-3.096-.601-4.227-1.802-1.131-1.201-1.696-2.698-1.696-4.491 0-2.078 1.237-5.234 3.711-9.465l8.389-14.251c1.111.251 1.99.376 2.635.376.968 0 2.33-.125 4.087-.376l-12.206 20.06c-1.757 2.904-2.635 5.145-2.635 6.722 0 1.614.844 2.42 2.531 2.42 3.195 0 8.814-5.691 16.855-17.074.18-.358.358-.538.539-.538.214.001.322.108.322.323zm-.78-22.237c0 1.255-.53 2.429-1.587 3.522-1.058 1.094-2.214 1.64-3.469 1.64-1.613 0-2.419-.807-2.419-2.42 0-1.183.555-2.321 1.667-3.415 1.111-1.093 2.277-1.64 3.496-1.64 1.54.001 2.312.772 2.312 2.313zM128.663 55.579c0 .573-1.939 3.026-5.815 7.357-4.343 4.798-9.96 9.077-16.852 12.836l-2.689 4.894c-4.876 8.999-10.344 15.935-16.402 20.812-5.808 4.696-10.827 7.045-15.058 7.045-1.541 0-2.814-.466-3.818-1.399-1.003-.932-1.506-2.079-1.506-3.442 0-7.349 8.3-14.807 24.899-22.371 3.584-1.649 5.897-2.761 6.937-3.334l9.142-16.832c-3.98 5.27-6.785 8.667-8.415 10.191-1.632 1.523-3.307 2.286-5.029 2.286-1.864 0-3.451-.825-4.759-2.474-1.31-1.648-1.963-3.657-1.963-6.022 0-6.202 4.051-11.831 12.154-16.887 5.413-3.369 9.662-5.055 12.745-5.055 2.152 0 3.227 1.183 3.227 3.549 0 .645-.161 1.416-.484 2.312l3.012-5.432c.968.251 1.81.376 2.527.376.932 0 2.294-.125 4.087-.376-.251.323-1.829 3.012-4.732 8.067l-13.337 23.016c4.696-2.648 8.452-5.208 11.266-7.679 2.815-2.47 5.997-6.032 9.546-10.686.538-.716.896-1.075 1.076-1.075.16.036.241.144.241.323zm-30.842 23.312c-.681.395-2.707 1.416-6.077 3.066-16.348 8.102-24.522 15.38-24.522 21.833 0 1.111.413 2.044 1.237 2.797.825.753 1.882 1.129 3.173 1.129 3.944 0 7.78-2.017 11.508-6.05s8.406-11.266 14.036-21.699l.645-1.076zm17.047-32.158c0-1.829-.879-2.743-2.635-2.743-3.227 0-7.502 3.218-12.826 9.653s-7.985 11.625-7.985 15.568c0 2.403 1.039 3.603 3.119 3.603 2.115 0 5.7-3.19 10.756-9.572 6.38-8.066 9.571-13.569 9.571-16.509zM171.625 55.525c0 .755-2.602 4.237-7.806 10.448-4.272 5.099-7.628 7.649-10.068 7.649-1.615 0-2.971-.628-4.065-1.882-1.095-1.255-1.642-2.797-1.642-4.625 0-1.613.331-3.11.995-4.49.662-1.38 2.393-4.114 5.19-8.201 2.904-4.302 4.356-7.045 4.356-8.228 0-1.47-.772-2.205-2.313-2.205-5.235 0-13.301 9.716-24.199 29.147-1.757-.144-2.815-.215-3.173-.215-1.255 0-2.439.071-3.549.215l8.389-13.283c4.768-7.601 7.153-12.35 7.153-14.251 0-1.076-.45-1.614-1.347-1.614-1.832 0-5.443 3.863-10.831 11.589-.324.467-.575.718-.755.754-.18 0-.287-.108-.322-.323.035-.18.107-.324.215-.431l1.024-1.347c5.494-7.365 9.192-11.048 11.095-11.048 1.221 0 2.262.556 3.124 1.667.862 1.112 1.294 2.439 1.294 3.98 0 2.294-1.344 5.485-4.034 9.572 4.23-5.843 7.484-9.841 9.761-11.992 2.277-2.151 4.383-3.227 6.319-3.227 1.577 0 2.904.645 3.98 1.936s1.614 2.886 1.614 4.786c0 2.403-1.65 6.077-4.947 11.024-3.371 5.055-5.055 8.282-5.055 9.681 0 1.47.736 2.204 2.208 2.204 3.195 0 8.706-5.691 16.533-17.074.18-.358.359-.538.539-.538.21 0 .317.107.317.322zM209.431 55.525c0 .755-2.62 4.237-7.86 10.448-4.236 5.099-7.574 7.649-10.015 7.649-1.652 0-2.998-.619-4.039-1.856-1.041-1.237-1.561-2.787-1.561-4.652 0-1.936.573-4.033 1.721-6.292-3.586 5.02-6.328 8.408-8.228 10.164-1.9 1.756-3.746 2.635-5.539 2.635-1.9 0-3.495-.816-4.786-2.447-1.291-1.631-1.936-3.684-1.936-6.157 0-6.883 4.857-12.978 14.574-18.284 4.266-2.367 7.707-3.549 10.325-3.549 2.223 0 3.334 1.075 3.334 3.227 0 .61-.144 1.417-.431 2.42l2.743-5.217c1.076.251 2.025.376 2.85.376.968 0 2.223-.125 3.764-.376l-9.518 15.757c-3.299 5.521-4.948 9.161-4.948 10.917 0 1.685.7 2.527 2.1 2.527 1.436 0 3.735-1.643 6.894-4.928 3.159-3.286 6.372-7.334 9.639-12.146.215-.358.413-.538.592-.538.218 0 .325.107.325.322zm-14.816-8.9c0-1.756-.806-2.635-2.419-2.635-3.299 0-7.628 3.227-12.987 9.68-5.361 6.453-8.04 11.67-8.04 15.649 0 2.331 1.039 3.495 3.119 3.495 2.474 0 6.757-4.105 12.853-12.315 4.982-6.739 7.474-11.364 7.474-13.874zM229.356 43.183l-.431.806h-7.045l-11.992 20.489c-1.47 2.474-2.205 4.446-2.205 5.915 0 1.614.844 2.42 2.531 2.42 3.267 0 8.778-5.691 16.532-17.074.251-.358.466-.538.646-.538.215 0 .322.107.322.322-.035.108-.215.395-.537.862l-2.315 3.177c-6.748 9.372-11.827 14.057-15.237 14.057-1.687 0-3.096-.61-4.227-1.829-1.131-1.218-1.696-2.743-1.696-4.571 0-2.152.95-4.84 2.85-8.067l9.035-15.165h-5.485l.538-.806h5.377l6.292-10.433c1.076.287 2.098.43 3.066.43 1.003 0 2.043-.143 3.119-.43l-6.185 10.433h7.047zM262.187 55.525c0 .826-2.602 4.309-7.807 10.448-4.307 5.099-7.717 7.649-10.23 7.649-1.58 0-2.917-.637-4.011-1.909-1.095-1.272-1.642-2.805-1.642-4.598 0-1.398.699-3.352 2.097-5.862l-1.076 1.452c-3.299 4.231-5.718 7.063-7.26 8.497-1.685 1.613-3.28 2.42-4.786 2.42-1.578 0-2.904-.619-3.98-1.856s-1.614-2.751-1.614-4.544c0-2.079.806-4.464 2.42-7.153l9.788-16.456c1.218.251 2.168.376 2.85.376.681 0 1.9-.125 3.657-.376l-12.799 21.08c-1.29 2.152-1.936 4.052-1.936 5.7 0 1.614.681 2.42 2.044 2.42 3.62 0 9.429-6.757 17.424-20.274l5.27-8.927c1.111.251 2.044.376 2.797.376.896 0 2.168-.125 3.818-.376l-8.605 14.036c-4.087 6.668-6.13 10.953-6.13 12.853 0 1.542.736 2.312 2.208 2.312 2.872 0 7.539-4.524 14.002-13.572l1.669-2.316.969-1.185c.18-.358.358-.538.539-.538.216.001.324.108.324.323zM292.949 55.525c0 .289-1.077 1.601-3.231 3.938-2.73 3.022-5.298 4.532-7.704 4.532-2.73 0-4.095-1.577-4.095-4.732 0-1.003.216-2.277.646-3.818-2.259 1.972-4.096 3.925-5.512 5.861-1.417 1.937-3.863 5.881-7.34 11.831-1.9-.144-3.012-.215-3.334-.215-.143 0-1.236.071-3.28.215l8.82-14.305c4.41-7.17 6.615-11.616 6.615-13.336 0-1.003-.414-1.506-1.24-1.506-2.011 0-5.658 3.863-10.939 11.589-.324.502-.611.754-.862.754-.143-.035-.215-.143-.215-.323.035-.18.108-.324.215-.431l.97-1.347c5.53-7.365 9.283-11.048 11.258-11.048 2.872 0 4.309 1.847 4.309 5.539 0 2.761-1.47 6.418-4.41 10.971 1.863-2.151 3.639-3.907 5.324-5.27 1.362-3.19 3.056-5.862 5.082-8.013 2.025-2.151 3.845-3.227 5.459-3.227 1.111 0 1.667.484 1.667 1.452 0 1.721-2.492 4.177-7.475 7.367-.789.502-1.972 1.237-3.549 2.205l-.645.538c-.502 1.649-.753 3.012-.753 4.087 0 3.012 1.131 4.517 3.394 4.517 2.801 0 5.854-2.32 9.16-6.96.717-.79 1.167-1.186 1.347-1.186.211-.001.318.106.318.321zM320 55.579c0 .107-.324.573-.969 1.397l-2.314 2.899c-7.428 9.165-13.798 13.747-19.108 13.747-2.513 0-4.621-.906-6.325-2.716-1.704-1.81-2.556-4.078-2.556-6.803 0-6.453 4.499-12.135 13.498-17.047 4.732-2.581 8.586-3.872 11.562-3.872 1.291 0 2.393.385 3.307 1.156.914.771 1.372 1.712 1.372 2.823 0 2.581-1.685 4.778-5.055 6.588-3.37 1.811-8.999 3.505-16.886 5.082-2.438 3.694-3.657 6.776-3.657 9.25 0 3.084 1.669 4.625 5.006 4.625 5.67 0 12.614-5.53 20.833-16.592.43-.573.789-.859 1.076-.859.144.035.216.143.216.322zm-4.545-9.975c0-1.147-.628-1.721-1.882-1.721-1.9 0-4.401 1.318-7.502 3.953s-6.14 6.05-9.116 10.244c5.163-1.326 9.536-3.199 13.122-5.62 3.585-2.42 5.378-4.706 5.378-6.856zM129.196 95.306c-.749.217-1.516.316-2.299.316-3.815 0-6.897-2.582-6.897-6.514 0-3.898 3.132-6.497 6.897-6.497 2.216 0 3.749.783 5.298 2.315l-.999 1.05c-1.316-1.216-2.482-1.899-4.332-1.899-2.932 0-5.414 2.016-5.414 5.048 0 3.082 2.499 5.031 5.448 5.031.5 0 1.016-.05 1.516-.15 1.083-.233 2.565-.916 2.565-2.233v-1.749h-4.298v-1.466h5.764v3.315c0 1.817-1.683 2.967-3.249 3.433zM142.923 95.306l-2.499-3.532h-3.016v3.532h-1.483v-8.63h5.331c1.749 0 3.282.55 3.282 2.549 0 1.466-.9 2.333-2.316 2.516l2.516 3.565h-1.815zm-1.599-7.164h-3.915v2.166h3.998c.817 0 1.666-.167 1.666-1.149 0-.734-.35-1.017-1.749-1.017zM152.402 95.606c-2.682 0-5.198-1.666-5.198-4.548v-.233c0-2.915 2.699-4.398 5.331-4.398 2.715 0 5.248 1.616 5.248 4.548 0 2.965-2.649 4.631-5.381 4.631zm.116-7.68c-1.882 0-3.831.999-3.831 3.115 0 2.083 1.866 3.065 3.732 3.065s3.882-.999 3.882-3.115c-.001-2.116-1.9-3.065-3.783-3.065zM168.407 94.006c-.749 1.149-2.366 1.549-3.648 1.549-1.183 0-2.415-.267-3.298-1.1-.85-.817-.9-1.799-.9-2.916v-4.865h1.483v4.865c0 1.183.117 1.466.383 1.766.55.616 1.666.766 2.432.766.8 0 1.849-.2 2.332-.9.2-.283.284-.566.284-1.633v-4.865h1.466v4.865c-.001 1.369-.1 1.802-.534 2.468zM180.232 91.524c-.7.616-1.1.65-2.649.65h-3.348v3.132h-1.466v-8.63h5.281c1.082 0 1.316.084 1.816.383.816.483 1.233 1.483 1.233 2.399-.001.783-.267 1.533-.867 2.066zm-2.482-3.382h-3.515v2.565h3.348c1.549 0 2.05-.2 2.05-1.25-.001-1.065-.584-1.315-1.883-1.315zM200.239 95.306v-5.764h-7.997v5.764h-1.483v-12.445h1.483v5.214h7.997v-5.214h1.483v12.445h-1.483zM210.132 95.606c-2.682 0-5.198-1.666-5.198-4.548v-.233c0-2.915 2.699-4.398 5.331-4.398 2.715 0 5.247 1.616 5.247 4.548.001 2.965-2.648 4.631-5.38 4.631zm.117-7.68c-1.882 0-3.831.999-3.831 3.115 0 2.083 1.865 3.065 3.732 3.065 1.865 0 3.881-.999 3.881-3.115-.001-2.116-1.9-3.065-3.782-3.065zM218.993 95.306v-8.63h1.466v7.164h5.264v1.466h-6.73zM233.253 95.306h-4.731v-8.63h4.731c2.866 0 4.398 1.916 4.398 4.282 0 2.665-1.749 4.348-4.398 4.348zm0-7.164h-3.265v5.698h3.265c1.75 0 2.932-1.083 2.932-2.866 0-1.882-1.167-2.832-2.932-2.832zM241.215 95.306v-8.63h1.467v8.63h-1.467zM253.206 95.306l-5.398-6.414v6.414h-1.466v-8.63h1.482l5.382 6.397v-6.397h1.466v8.63h-1.466zM262.749 95.556c-2.682 0-5.165-1.699-5.165-4.565 0-2.949 2.565-4.548 5.281-4.548 1.566 0 2.798.467 4.031 1.416l-.849 1.183c-1.183-.833-1.849-1.133-3.298-1.133-1.833 0-3.682 1.066-3.682 3.082 0 2.032 1.866 3.099 3.698 3.099 1.266 0 1.799-.183 2.883-.833v-1.299h-2.483v-1.483h3.966v3.548c-1.383 1-2.633 1.533-4.382 1.533zM274.928 95.606c-1.865 0-3.665-.333-5.181-1.466l.7-1.283c1.416.899 2.549 1.283 4.248 1.283 1.649 0 2.816-.233 2.816-1.383 0-.217-.034-.45-.15-.65-.283-.433-1.099-.55-2.399-.55-2.583 0-2.916-.117-3.416-.35-.782-.366-1.199-1.199-1.199-2.049 0-2.099 2.116-2.732 3.864-2.732 1.599 0 2.982.366 4.381 1.133l-.683 1.316c-1.233-.733-2.232-.999-3.665-.999-1.4 0-2.299.333-2.299 1.183 0 .2.033.417.15.583.233.35.8.483 2.482.483 2.349 0 4.481.2 4.481 2.482.001 2.449-2.064 2.999-4.13 2.999zM288.905 95.306v-12.461h1.466v12.461h-1.466zM300.879 95.306l-5.398-6.414v6.414h-1.466v-8.63h1.483l5.381 6.397v-6.397h1.466v8.63h-1.466zM310.387 95.606c-2.765 0-5.381-1.533-5.381-4.565 0-2.899 2.432-4.615 5.165-4.615 1.683 0 3.166.583 4.481 1.616l-.782 1.233c-1.2-.833-2.182-1.366-3.682-1.366-1.866 0-3.715 1.083-3.715 3.132 0 2.149 1.982 3.082 3.881 3.082 1.416 0 2.582-.417 3.749-1.216l.65 1.349c-1.35.933-2.716 1.35-4.366 1.35zM318.867 95.689c-.634 0-1.167-.5-1.167-1.133 0-.616.517-1.149 1.133-1.149.65 0 1.167.517 1.167 1.149 0 .633-.517 1.133-1.133 1.133z"/></g></svg>